{
    "asset" : {
        "generator" : "Khronos glTF Blender I/O v1.4.40",
        "version" : "2.0"
    },
    "scene" : 0,
    "scenes" : [
        {
            "name" : "Scene",
            "nodes" : [
                0
            ]
        }
    ],
    "nodes" : [
        {
            "mesh" : 0,
            "name" : "GothicBed_01"
        }
    ],
    "materials" : [
        {
            "doubleSided" : true,
            "name" : "GothicBed_01",
            "normalTexture" : {
                "index" : 0,
                "texCoord" : 0
            },
            "pbrMetallicRoughness" : {
                "baseColorTexture" : {
                    "index" : 1,
                    "texCoord" : 0
                },
                "metallicRoughnessTexture" : {
                    "index" : 2,
                    "texCoord" : 0
                }
            }
        }
    ],
    "meshes" : [
        {
            "name" : "Plane.004",
            "primitives" : [
                {
                    "attributes" : {
                        "POSITION" : 0,
                        "NORMAL" : 1,
                        "TEXCOORD_0" : 2
                    },
                    "indices" : 3,
                    "material" : 0
                }
            ]
        }
    ],
    "textures" : [
        {
            "sampler" : 0,
            "source" : 0
        },
        {
            "sampler" : 0,
            "source" : 1
        },
        {
            "sampler" : 0,
            "source" : 2
        }
    ],
    "images" : [
        {
            "mimeType" : "image/png",
            "name" : "GothicBed_01_8-bit_Normal",
            "uri" : "bed/GothicBed_01_8-bit_Normal.png"
        },
        {
            "mimeType" : "image/png",
            "name" : "GothicBed_01_8-bit_Diffuse",
            "uri" : "bed/GothicBed_01_8-bit_Diffuse.png"
        },
        {
            "mimeType" : "image/png",
            "name" : "GothicBed_01_8-bit_OcclusionRoughnessMetallic",
            "uri" : "bed/GothicBed_01_8-bit_OcclusionRoughnessMetallic.png"
        }
    ],
    "accessors" : [
        {
            "bufferView" : 0,
            "componentType" : 5126,
            "count" : 17069,
            "max" : [
                1.053105354309082,
                1.5338401794433594,
                0.782444417476654
            ],
            "min" : [
                -0.9868945479393005,
                -1.181181374931839e-07,
                -0.7113075256347656
            ],
            "type" : "VEC3"
        },
        {
            "bufferView" : 1,
            "componentType" : 5126,
            "count" : 17069,
            "type" : "VEC3"
        },
        {
            "bufferView" : 2,
            "componentType" : 5126,
            "count" : 17069,
            "type" : "VEC2"
        },
        {
            "bufferView" : 3,
            "componentType" : 5123,
            "count" : 56235,
            "type" : "SCALAR"
        }
    ],
    "bufferViews" : [
        {
            "buffer" : 0,
            "byteLength" : 204828,
            "byteOffset" : 0
        },
        {
            "buffer" : 0,
            "byteLength" : 204828,
            "byteOffset" : 204828
        },
        {
            "buffer" : 0,
            "byteLength" : 136552,
            "byteOffset" : 409656
        },
        {
            "buffer" : 0,
            "byteLength" : 112470,
            "byteOffset" : 546208
        }
    ],
    "samplers" : [
        {
            "magFilter" : 9729,
            "minFilter" : 9986
        }
    ],
    "buffers" : [
        {
            "byteLength" : 658680,
            "uri" : "bed.bin"
        }
    ]
}
